D:\school\WTK\thesis\model\3dpredictsim\Results\debug_batch\Pog_s1_tmt_bCst_d05_k1000_ig24_act_TTC_GRF.mot
nRows=27
nColumns=19

name D:\school\WTK\thesis\model\3dpredictsim\Results\debug_batch\Pog_s1_tmt_bCst_d05_k1000_ig24_act_TTC_GRF.mot
datacolumns 19
datarows 27
range 0.0000000000 0.3215091848
endheader
time 	ground_force_vx	ground_force_vy	ground_force_vz	ground_force_px	ground_force_py	ground_force_pz	1_ground_force_vx	1_ground_force_vy	1_ground_force_vz	1_ground_force_px	1_ground_force_py	1_ground_force_pz	ground_torque_x	ground_torque_y	ground_torque_z	1_ground_torque_x	1_ground_torque_y	1_ground_torque_z
        0.0000000000	      -44.5663643340	       35.2336950756	       11.2989817124	        0.2011240205	        0.0000000000	        0.0508246843	      110.5787800305	      440.8004308767	       -0.8802243694	       -0.3525581106	        0.0000000000	       -0.0370952086	        0.0000000000	        0.0000000000	        0.0000000000	        0.0000000000	        0.0000000000	        0.0000000000	
        0.0123657379	     -117.5568378815	      121.0586767990	       42.8982618661	        0.2091204908	        0.0000000000	        0.0489351541	       79.2447316836	      339.6753003017	       -5.8193999253	       -0.3452949275	        0.0000000000	       -0.0344292885	        0.0000000000	        0.0000000000	        0.0000000000	        0.0000000000	        0.0000000000	        0.0000000000	
        0.0247314758	      -61.8466200376	      305.0466562626	       15.2702738765	        0.2145716978	        0.0000000000	        0.0470645563	       43.4408473532	      224.0610622304	      -12.8539873055	       -0.3319649063	        0.0000000000	       -0.0291642679	        0.0000000000	        0.0000000000	        0.0000000000	        0.0000000000	        0.0000000000	        0.0000000000	
        0.0370972136	      -62.3381569853	      508.5877261943	       -5.1716555473	        0.2175912807	        0.0000000000	        0.0469172202	       25.9135840619	      168.3899061987	      -14.8533722034	       -0.3235121610	        0.0000000000	       -0.0253492570	        0.0000000000	        0.0000000000	        0.0000000000	        0.0000000000	        0.0000000000	        0.0000000000	
        0.0494629515	     -107.1839776773	      715.4829323463	      -14.0894068016	        0.2258291814	        0.0000000000	        0.0487955317	       22.7298723619	      133.1424270790	      -15.8094915961	       -0.3231498755	        0.0000000000	       -0.0254748197	        0.0000000000	        0.0000000000	        0.0000000000	        0.0000000000	        0.0000000000	        0.0000000000	
        0.0618286894	     -141.4309771283	      856.8857640436	      -20.1577230883	        0.2342150942	        0.0000000000	        0.0507971930	       14.0805354462	       87.7086578000	      -15.9643735494	       -0.3228448671	        0.0000000000	       -0.0256904555	        0.0000000000	        0.0000000000	        0.0000000000	        0.0000000000	        0.0000000000	        0.0000000000	
        0.0741944273	     -149.4570532153	      887.3554182016	      -20.6352435574	        0.2397303592	        0.0000000000	        0.0519861707	       -0.2334368547	       35.8484826710	       -8.5950733186	       -0.3233731288	        0.0000000000	       -0.0255767388	        0.0000000000	        0.0000000000	        0.0000000000	        0.0000000000	        0.0000000000	        0.0000000000	
        0.0865601651	     -139.2647830843	      864.8473443353	      -19.6223842306	        0.2436851790	        0.0000000000	        0.0526906244	        0.2268745105	       -0.2244518925	        0.0014962306	        0.0000000000	        0.0000000000	        0.0000000000	        0.0000000000	        0.0000000000	        0.0000000000	        0.0000000000	        0.0000000000	        0.0000000000	
        0.0989259030	     -122.0566042666	      820.9531321395	      -18.5660564571	        0.2472649571	        0.0000000000	        0.0530951846	        0.0014760789	       -0.0011646134	       -0.0001032501	        0.0000000000	        0.0000000000	        0.0000000000	        0.0000000000	        0.0000000000	        0.0000000000	        0.0000000000	        0.0000000000	        0.0000000000	
        0.1112916409	     -106.5799156134	      775.3230085500	      -17.7546922987	        0.2510544948	        0.0000000000	        0.0532450625	        0.0023679228	       -0.0015979061	       -0.0001929730	        0.0000000000	        0.0000000000	        0.0000000000	        0.0000000000	        0.0000000000	        0.0000000000	        0.0000000000	        0.0000000000	        0.0000000000	
        0.1236573788	      -93.1570815088	      735.8964018781	      -17.2603228614	        0.2551627202	        0.0000000000	        0.0532411488	        0.0313479053	       -0.0189116760	       -0.0026358338	        0.0000000000	        0.0000000000	        0.0000000000	        0.0000000000	        0.0000000000	        0.0000000000	        0.0000000000	        0.0000000000	        0.0000000000	
        0.1360231166	      -82.7792192431	      706.2268492725	      -17.0105125869	        0.2599466443	        0.0000000000	        0.0530761991	       -0.1573323193	        0.0870080011	        0.0132087661	        0.0000000000	        0.0000000000	        0.0000000000	        0.0000000000	        0.0000000000	        0.0000000000	        0.0000000000	        0.0000000000	        0.0000000000	
        0.1483888545	      -73.0154001433	      680.5264749994	      -17.7886898580	        0.2649157288	        0.0000000000	        0.0528159212	       -0.1115365524	        0.0581331257	        0.0087707917	        0.0000000000	        0.0000000000	        0.0000000000	        0.0000000000	        0.0000000000	        0.0000000000	        0.0000000000	        0.0000000000	        0.0000000000	
        0.1607545924	      -63.6762180569	      656.0792874530	      -18.5386334171	        0.2696396517	        0.0000000000	        0.0526113944	       -0.0650275582	        0.0322439417	        0.0049118976	        0.0000000000	        0.0000000000	        0.0000000000	        0.0000000000	        0.0000000000	        0.0000000000	        0.0000000000	        0.0000000000	        0.0000000000	
        0.1731203303	      -54.7872945769	      634.9832651461	      -18.7819259891	        0.2741089352	        0.0000000000	        0.0524935771	       -0.0455549715	        0.0216659990	        0.0033351027	        0.0000000000	        0.0000000000	        0.0000000000	        0.0000000000	        0.0000000000	        0.0000000000	        0.0000000000	        0.0000000000	        0.0000000000	
        0.1854860681	      -46.7304885470	      617.2685964527	      -19.2194105825	        0.2785153301	        0.0000000000	        0.0524250656	       -0.0404539287	        0.0185741423	        0.0028763777	        0.0000000000	        0.0000000000	        0.0000000000	        0.0000000000	        0.0000000000	        0.0000000000	        0.0000000000	        0.0000000000	        0.0000000000	
        0.1978518060	      -39.6303372467	      602.9156883093	      -19.3386588885	        0.2829494552	        0.0000000000	        0.0523842400	       -0.0450404764	        0.0200715000	        0.0030932788	        0.0000000000	        0.0000000000	        0.0000000000	        0.0000000000	        0.0000000000	        0.0000000000	        0.0000000000	        0.0000000000	        0.0000000000	
        0.2102175439	      -33.3893087493	      591.7493162747	      -19.2362559760	        0.2873776750	        0.0000000000	        0.0523517961	       -0.0611295398	        0.0265303501	        0.0040489786	        0.0000000000	        0.0000000000	        0.0000000000	        0.0000000000	        0.0000000000	        0.0000000000	        0.0000000000	        0.0000000000	        0.0000000000	
        0.2225832818	      -28.2680992524	      584.1305159569	      -19.0735860208	        0.2919521637	        0.0000000000	        0.0522988236	       -0.0970506306	        0.0411103744	        0.0061707470	        0.0000000000	        0.0000000000	        0.0000000000	        0.0000000000	        0.0000000000	        0.0000000000	        0.0000000000	        0.0000000000	        0.0000000000	
        0.2349490197	      -23.9663426262	      579.6933925938	      -19.0980974144	        0.2968519546	        0.0000000000	        0.0521857454	       -0.1699620619	        0.0704283397	        0.0103342523	        0.0000000000	        0.0000000000	        0.0000000000	        0.0000000000	        0.0000000000	        0.0000000000	        0.0000000000	        0.0000000000	        0.0000000000	
        0.2473147575	      -20.4009869368	      576.9818408378	      -19.2693800956	        0.3019655725	        0.0000000000	        0.0520092579	       -0.3071700493	        0.1248321350	        0.0178167959	        0.0000000000	        0.0000000000	        0.0000000000	        0.0000000000	        0.0000000000	        0.0000000000	        0.0000000000	        0.0000000000	        0.0000000000	
        0.2596804954	      -16.8254740171	      575.4258276361	      -19.5743025142	        0.3072157640	        0.0000000000	        0.0517810303	       -0.5384144151	        0.2151734773	        0.0297769459	        0.0000000000	        0.0000000000	        0.0000000000	        0.0000000000	        0.0000000000	        0.0000000000	        0.0000000000	        0.0000000000	        0.0000000000	
        0.2720462333	      -13.4351633248	      574.2637708509	      -19.7765215856	        0.3125660167	        0.0000000000	        0.0515110125	       -0.8731163314	        0.3440923752	        0.0461091721	        0.0000000000	        0.0000000000	        0.0000000000	        0.0000000000	        0.0000000000	        0.0000000000	        0.0000000000	        0.0000000000	        0.0000000000	
        0.2844119712	      -10.2673464760	      572.3386576511	      -20.1867627092	        0.3178592661	        0.0000000000	        0.0512204314	       -1.2684122181	        0.4943382528	        0.0639783168	        0.0000000000	        0.0000000000	        0.0000000000	        0.0000000000	        0.0000000000	        0.0000000000	        0.0000000000	        0.0000000000	        0.0000000000	
        0.2967777090	       -7.2206663943	      569.3096820147	      -20.3163061168	        0.3230663981	        0.0000000000	        0.0509248708	       -1.6330794863	        0.6310499802	        0.0786086496	        0.0000000000	        0.0000000000	        0.0000000000	        0.0000000000	        0.0000000000	        0.0000000000	        0.0000000000	        0.0000000000	        0.0000000000	
        0.3091434469	       -4.2993236950	      565.5084151343	      -20.0243826417	        0.3281997241	        0.0000000000	        0.0506239840	       -1.8787758072	        0.7213796412	        0.0855137765	        0.0000000000	        0.0000000000	        0.0000000000	        0.0000000000	        0.0000000000	        0.0000000000	        0.0000000000	        0.0000000000	        0.0000000000	
        0.3215091848	       -1.3823853712	      561.2311593990	      -19.1290153312	        0.3332818976	        0.0000000000	        0.0503131582	       -1.9691377726	        0.7524737913	        0.0827728372	        0.0000000000	        0.0000000000	        0.0000000000	        0.0000000000	        0.0000000000	        0.0000000000	        0.0000000000	        0.0000000000	        0.0000000000	
